<?xml version="1.0" encoding="UTF-8"?>
<!-- (c) Carrd Inc. All rights reserved. All logos and trademarks are property of their respective owners. -->
<svg xmlns="http://www.w3.org/2000/svg" version="1.1" xmlns:xlink="http://www.w3.org/1999/xlink" viewBox="0 0 40 40" display="none" width="0" height="0">
	<symbol id="linkedin" viewBox="0 0 40 40"><path d="M12.1,13.8v19.1H5.7V13.8C5.7,13.8,12.1,13.8,12.1,13.8z M12.5,7.9c0,0.9-0.3,1.7-1,2.4c-0.7,0.6-1.5,0.9-2.6,0.9h0 c-1.1,0-1.9-0.3-2.5-0.9c-0.6-0.6-1-1.4-1-2.4c0-1,0.3-1.7,1-2.4S7.9,4.6,9,4.6s1.9,0.3,2.6,0.9S12.5,6.9,12.5,7.9z M35,22v11h-6.4 V22.7c0-1.4-0.3-2.4-0.8-3.2c-0.5-0.8-1.3-1.1-2.4-1.1c-0.8,0-1.5,0.2-2,0.7c-0.5,0.4-1,1-1.2,1.7c-0.1,0.4-0.2,0.9-0.2,1.6v10.7 h-6.4c0-5.1,0-9.3,0-12.5s0-5.1,0-5.7l0-0.9H22v2.8h0c0.3-0.4,0.5-0.8,0.8-1.1c0.3-0.3,0.6-0.6,1.1-1c0.5-0.4,1-0.6,1.7-0.8 c0.7-0.2,1.4-0.3,2.2-0.3c2.2,0,4,0.7,5.3,2.2C34.4,17,35,19.1,35,22L35,22z"/></symbol>
	<symbol id="artstation" viewBox="0 0 40 40"><path d="M3.4,27.7l2.8,4.9c0.6,1.1,1.7,1.9,3,1.9h18.9l-3.9-6.8L3.4,27.7L3.4,27.7z"/> <path d="M37,27.7c0-0.7-0.2-1.3-0.5-1.8L25.4,6.6c-0.6-1.1-1.7-1.8-3-1.8h-5.8l17.1,29.6l2.7-4.7C36.9,28.9,37,28.5,37,27.7z"/> <path d="M21.4,22.8L13.8,9.6L6.1,22.8H21.4z"/></symbol>
	<symbol id="cara" viewBox="0 0 40 40"><path d="M6.75,39.71v-2.4h26.5v2.4H6.75z M17.13,24.89c0.98,0.63,2.12,0.95,3.42,0.95c0.73,0,1.4-0.1,2.01-0.29 c0.63-0.19,1.18-0.47,1.66-0.84c0.48-0.38,0.88-0.83,1.2-1.36c0.33-0.53,0.55-1.14,0.68-1.83l5.48,0.03 c-0.14,1.18-0.5,2.31-1.06,3.41c-0.56,1.09-1.31,2.06-2.26,2.92c-0.94,0.85-2.07,1.53-3.38,2.03c-1.3,0.49-2.77,0.74-4.42,0.74 c-2.29,0-4.33-0.52-6.13-1.55c-1.79-1.04-3.21-2.53-4.25-4.5c-1.03-1.96-1.55-4.34-1.55-7.13c0-2.8,0.53-5.18,1.58-7.14 c1.05-1.96,2.48-3.46,4.28-4.48c1.8-1.04,3.83-1.55,6.08-1.55c1.48,0,2.86,0.21,4.13,0.63c1.28,0.42,2.41,1.03,3.39,1.83 c0.98,0.79,1.79,1.77,2.4,2.92c0.63,1.15,1.03,2.47,1.2,3.96h-5.48c-0.1-0.71-0.3-1.34-0.61-1.89c-0.31-0.56-0.7-1.04-1.19-1.43 c-0.48-0.39-1.04-0.69-1.68-0.9C22,9.19,21.32,9.09,20.59,9.09c-1.33,0-2.48,0.33-3.47,0.99c-0.98,0.65-1.75,1.6-2.29,2.86 c-0.54,1.24-0.81,2.75-0.81,4.53c0,1.83,0.27,3.36,0.81,4.61C15.38,23.32,16.15,24.26,17.13,24.89z"/></symbol>
	<symbol id="instagram" viewBox="0 0 40 40"><path d="M20,7c4.2,0,4.7,0,6.3,0.1c1.5,0.1,2.3,0.3,3,0.5C30,8,30.5,8.3,31.1,8.9c0.5,0.5,0.9,1.1,1.2,1.8c0.2,0.5,0.5,1.4,0.5,3 C33,15.3,33,15.8,33,20s0,4.7-0.1,6.3c-0.1,1.5-0.3,2.3-0.5,3c-0.3,0.7-0.6,1.2-1.2,1.8c-0.5,0.5-1.1,0.9-1.8,1.2 c-0.5,0.2-1.4,0.5-3,0.5C24.7,33,24.2,33,20,33s-4.7,0-6.3-0.1c-1.5-0.1-2.3-0.3-3-0.5C10,32,9.5,31.7,8.9,31.1 C8.4,30.6,8,30,7.7,29.3c-0.2-0.5-0.5-1.4-0.5-3C7,24.7,7,24.2,7,20s0-4.7,0.1-6.3c0.1-1.5,0.3-2.3,0.5-3C8,10,8.3,9.5,8.9,8.9 C9.4,8.4,10,8,10.7,7.7c0.5-0.2,1.4-0.5,3-0.5C15.3,7.1,15.8,7,20,7z M20,4.3c-4.3,0-4.8,0-6.5,0.1c-1.6,0-2.8,0.3-3.8,0.7 C8.7,5.5,7.8,6,6.9,6.9C6,7.8,5.5,8.7,5.1,9.7c-0.4,1-0.6,2.1-0.7,3.8c-0.1,1.7-0.1,2.2-0.1,6.5s0,4.8,0.1,6.5 c0,1.6,0.3,2.8,0.7,3.8c0.4,1,0.9,1.9,1.8,2.8c0.9,0.9,1.7,1.4,2.8,1.8c1,0.4,2.1,0.6,3.8,0.7c1.6,0.1,2.2,0.1,6.5,0.1 s4.8,0,6.5-0.1c1.6-0.1,2.9-0.3,3.8-0.7c1-0.4,1.9-0.9,2.8-1.8c0.9-0.9,1.4-1.7,1.8-2.8c0.4-1,0.6-2.1,0.7-3.8 c0.1-1.6,0.1-2.2,0.1-6.5s0-4.8-0.1-6.5c-0.1-1.6-0.3-2.9-0.7-3.8c-0.4-1-0.9-1.9-1.8-2.8c-0.9-0.9-1.7-1.4-2.8-1.8 c-1-0.4-2.1-0.6-3.8-0.7C24.8,4.3,24.3,4.3,20,4.3L20,4.3L20,4.3z"/><path d="M20,11.9c-4.5,0-8.1,3.7-8.1,8.1s3.7,8.1,8.1,8.1s8.1-3.7,8.1-8.1S24.5,11.9,20,11.9z M20,25.2c-2.9,0-5.2-2.3-5.2-5.2 s2.3-5.2,5.2-5.2s5.2,2.3,5.2,5.2S22.9,25.2,20,25.2z"/><path d="M30.6,11.6c0,1-0.8,1.9-1.9,1.9c-1,0-1.9-0.8-1.9-1.9s0.8-1.9,1.9-1.9C29.8,9.7,30.6,10.5,30.6,11.6z"/></symbol>
	<symbol id="github" viewBox="0 0 40 40"><path d="M20,2.6C10.4,2.6,2.6,10.4,2.6,20c0,7.7,5,14.2,11.9,16.5c0.9,0.2,1.2-0.4,1.2-0.8c0-0.4,0-1.5,0-2.9c-4.8,1-5.8-2.3-5.8-2.3c-0.8-2-1.9-2.5-1.9-2.5c-1.6-1.1,0.1-1.1,0.1-1.1c1.7,0.1,2.6,1.8,2.6,1.8c1.5,2.6,4,1.9,5,1.4c0.2-1.1,0.6-1.9,1.1-2.3c-3.8-0.4-7.8-1.9-7.8-8.5c0-1.9,0.7-3.4,1.8-4.6c-0.2-0.4-0.8-2.2,0.2-4.5c0,0,1.5-0.5,4.8,1.8c1.4-0.4,2.9-0.6,4.3-0.6c1.5,0,3,0.2,4.3,0.6c3.3-2.3,4.8-1.8,4.8-1.8c0.9,2.3,0.3,4.1,0.2,4.5c1.1,1.2,1.8,2.7,1.8,4.6c0,6.6-4,8.1-7.8,8.5c0.6,0.5,1.2,1.6,1.2,3.2c0,2.3,0,4.2,0,4.7c0,0.5,0.3,1,1.2,0.8C32.4,34.2,37.4,27.7,37.4,20C37.4,10.4,29.6,2.6,20,2.6z"/></symbol>
	<symbol id="huggingface" viewBox="0 0 40 40"><path d="M20,4C11.2,4,4,11.2,4,20s7.2,16,16,16s16-7.2,16-16S28.8,4,20,4z M14.5,15c1.1,0,2,0.9,2,2s-0.9,2-2,2s-2-0.9-2-2S13.4,15,14.5,15z M25.5,15c1.1,0,2,0.9,2,2s-0.9,2-2,2s-2-0.9-2-2S24.4,15,25.5,15z M28.8,24.4C27.8,27.6,24.2,30,20,30s-7.8-2.4-8.8-5.6c-0.2-0.7,0.3-1.4,1-1.4h15.6C28.5,23,29,23.7,28.8,24.4z"/></symbol>
	<symbol id="pdf" viewBox="0 0 40 40"><path d="M32.4,34.7c-0.3,0.3-0.7,0.5-1.1,0.5H9.1c-0.4,0-0.8-0.2-1.1-0.5c-0.3-0.3-0.5-0.7-0.5-1.1V6.4 C7.5,6,7.7,5.6,8,5.3C8.3,5,8.7,4.8,9.1,4.8h13.3l-0.1,9.3c0,0.4,0.2,0.8,0.5,1.1c0.3,0.3,0.7,0.5,1.1,0.5h9v17.9 C32.9,34,32.7,34.4,32.4,34.7z M16,23c-0.2-0.3-0.4-0.5-0.6-0.7c-0.3-0.2-0.6-0.3-0.9-0.4c-0.3-0.1-0.7-0.1-1.1-0.1h-2.6v7.1h1.9 v-2.2h0.8c0.4,0,0.7,0,1.1-0.1c0.3-0.1,0.6-0.2,0.9-0.4c0.3-0.2,0.5-0.5,0.6-0.8c0.2-0.3,0.2-0.7,0.2-1.1C16.2,23.7,16.1,23.3,16,23 z M23.4,23.7c-0.2-0.4-0.4-0.8-0.7-1.1c-0.3-0.3-0.7-0.5-1.2-0.6c-0.4-0.1-0.9-0.2-1.5-0.2h-2.1v7.1h2.2c0.5,0,1-0.1,1.4-0.2 c0.4-0.1,0.8-0.4,1.1-0.6c0.3-0.3,0.6-0.7,0.7-1.1c0.2-0.5,0.3-1,0.3-1.6C23.6,24.7,23.6,24.1,23.4,23.7z M30.1,21.8h-4.6v7.1h1.9 v-2.6h2.4v-1.6h-2.4v-1.4h2.7V21.8z M21.2,27c-0.2,0.2-0.4,0.3-0.6,0.3c-0.2,0.1-0.5,0.1-0.7,0.1h-0.1v-4.1h0.1c0.3,0,0.5,0,0.7,0.1 c0.2,0.1,0.4,0.2,0.6,0.3c0.2,0.1,0.3,0.3,0.4,0.6c0.1,0.3,0.1,0.6,0.1,1c0,0.4,0,0.8-0.1,1C21.5,26.6,21.4,26.8,21.2,27z M14.1,24.9c-0.2,0.2-0.5,0.3-0.8,0.3h-0.7v-1.9h0.6c0.4,0,0.6,0.1,0.8,0.2c0.2,0.1,0.3,0.4,0.3,0.7C14.4,24.5,14.3,24.7,14.1,24.9z M24.5,5.5c0.2,0.2,0.4,0.3,0.6,0.5l6.8,6.9c0.2,0.2,0.3,0.4,0.5,0.6l-7.9-0.1V5.5z"/></symbol>
	<symbol id="folder-alt" viewBox="0 0 40 40"><path d="M39.7,20.4c-2.5,3.7-4.9,7.5-7.4,11.2c-0.1,0.2-0.3,0.4-0.5,0.6c-0.5,0.5-1.2,0.8-1.8,0.9 c-0.7,0.2-1.3,0.1-2,0.1c-0.1,0-0.2,0-0.3,0c-7.4,0-14.9,0-22.3,0c-0.1,0-0.2,0-0.2,0c-0.1,0-0.3,0-0.4-0.1 c-0.8-0.2-1.1-0.8-0.6-1.5c2.5-3.8,5-7.6,7.5-11.4c0.4-0.7,1-1.3,1.9-1.4c0.5-0.1,1.1-0.2,1.6-0.2c5.6,0,11.1,0,16.7,0 c1.3,0,2.7,0,4,0c1,0,2,0,2.9,0c0.7,0,1.1,0.3,1.3,0.9c0,0,0,0.1,0,0.1C39.9,19.9,39.8,20.2,39.7,20.4z M31.2,16.9 c-0.1,0-0.2,0-0.3,0c-5.6,0-11.1,0-16.7,0c-0.4,0-0.9,0.1-1.3,0.2c-0.9,0.3-1.8,0.7-2.3,1.6c-2.1,3.2-4.2,6.4-6.3,9.5 c-0.4,0.6-0.8,1.2-1.2,1.9c0-0.1,0-0.2,0-0.3c0-3,0-5.9,0-8.9C3,17,3,13,3,9.1C3,8,3.6,7.2,4.6,6.8c0.1,0,0.3-0.1,0.4-0.1 c3.3,0,6.6,0,9.9,0c0,0,0,0,0.1,0c1.3,0.3,1.9,1.1,1.9,2.4c0,0.8,0,1.5,0,2.3c0,0.1,0,0.2,0,0.2c0.1,0,0.2,0,0.3,0 c3.8,0,7.7,0,11.5,0c1.4,0,2.4,1,2.4,2.4c0,0.9,0,1.7,0,2.6C31.2,16.8,31.2,16.8,31.2,16.9z"/></symbol>
	<symbol id="arrow-up-alt" viewBox="0 0 40 40"><path d="M34.6,25.1l-2.5,2.6c-.3.3-.9.3-1.2,0l-10.8-10.6-10.8,10.6c-.3.3-.9.3-1.2,0l-2.5-2.6c-.3-.3-.3-.9,0-1.2l13.8-13.4.2-.2c.2-.2.3-.2.5-.3h0c.2,0,.4.1.5.3l.2.2,13.8,13.4c.3.3.3.9,0,1.2Z" /></symbol>
</svg>
